:SAMPLES-PER-SECOND 24
:FULLY-SPECIFIED
:DEGREES
277
root  10.5589 41.0169 5.41013 -11.3237 -32.1136 15.6862
RightUpLeg  -1.68967 -16.5096 -13.6623
RightLeg  22.4717 -14.4933 -6.69008
RightFoot  -8.78481 -0.170316 4.86963
RightToes  -2.08645e-008 3.77894e-005 6.81332e-007
Spine  1.56273 -1.63144 -2.27202
Spine1  10.448 -1.85977 1.77641
HEad  -32.84 29.893 -15.5732
LeftShoulder1  5.67928 -11.2928 -32.3865
LeftArm  -0.837296 43.4525 -24.8935
LeftForeArm  152.278 -75.8009 -138.894
LeftHand  -0.229347 -3.12557 3.36428
RightShoulder  3.71488 6.32671 31.9036
RightArm  6.67935 -23.3615 26.7543
RightForeArm  21.0832 43.4618 9.18157
RightHand  -0.78765 7.7146 -7.31955
LeftUpLeg  -8.24267 9.38382 8.6252
LeftLeg  14.3054 0.997616 0.472145
LeftFoot  13.5739 4.50601 -20.5513
LeftToes  1.24767e-006 1.47042e-008 1.32732e-009
278
root  10.898 40.1885 5.74448 -6.27539 -31.0688 12.5206
RightUpLeg  -5.62228 -16.2182 -9.97256
RightLeg  24.8423 -17.2906 -8.75183
RightFoot  -13.2758 -0.0233488 3.94763
RightToes  -2.08645e-008 3.77894e-005 6.81332e-007
Spine  0.278586 -1.00674 -2.24721
Spine1  9.69096 -1.75523 4.06388
HEad  -34.3465 27.8726 -14.8512
LeftShoulder1  5.64359 -11.3198 -32.0756
LeftArm  -6.25368 48.115 -21.994
LeftForeArm  149.14 -76.4844 -136.092
LeftHand  -0.232356 -2.84952 3.5007
RightShoulder  3.59883 6.14677 31.402
RightArm  6.39289 -16.9127 24.1253
RightForeArm  24.4801 49.6919 11.3676
RightHand  -0.876378 7.31262 -8.34004
LeftUpLeg  -5.36991 7.63918 5.25335
LeftLeg  18.2794 3.86217 1.74719
LeftFoot  9.30878 4.1683 -22.9232
LeftToes  1.24767e-006 1.47042e-008 1.32732e-009
279
root  11.3854 39.4317 6.06732 -2.09229 -29.4495 8.11346
RightUpLeg  -8.79898 -17.7741 -6.22048
RightLeg  28.4488 -17.7789 -10.3705
RightFoot  -16.2862 0.0630206 4.00403
RightToes  -2.08645e-008 3.77894e-005 6.81332e-007
Spine  -0.0266194 -0.503545 1.44854
Spine1  10.5915 -1.13688 2.60589
HEad  -38.0217 24.4016 -15.4102
LeftShoulder1  5.669 -11.3439 -32.1854
LeftArm  -11.2018 47.0727 -20.3204
LeftForeArm  136.237 -78.515 -124.132
LeftHand  -0.383622 -2.03337 6.19821
RightShoulder  3.42834 5.95785 30.3321
RightArm  2.25264 -11.0373 23.9806
RightForeArm  28.7161 55.6959 14.0731
RightHand  -1.12341 6.22579 -11.5314
LeftUpLeg  -1.21124 4.68312 3.82142
LeftLeg  16.362 13.6431 4.69524
LeftFoot  -0.405873 2.04028 -20.873
LeftToes  1.24767e-006 1.47042e-008 1.32732e-009
280
root  11.6856 39.1369 6.39857 1.65405 -26.2289 5.1355
RightUpLeg  -11.2304 -20.8202 -3.58406
RightLeg  29.7822 -18.0058 -11.0445
RightFoot  -16.8408 0.108341 4.60746
RightToes  -2.08645e-008 3.77894e-005 6.81332e-007
Spine  -2.65276 0.044099 1.75541
Spine1  13.4031 -1.04812 3.10257
HEad  -41.0557 21.2304 -14.8004
LeftShoulder1  5.72731 -11.3148 -32.654
LeftArm  -14.0983 41.5105 -20.9955
LeftForeArm  105.24 -80.3587 -94.222
LeftHand  -0.623447 -0.992359 11.4625
RightShoulder  3.41727 5.98278 30.1159
RightArm  -1.83692 -7.47763 24.9708
RightForeArm  31.1123 61.4824 17.9527
RightHand  -1.25642 5.24687 -13.9267
LeftUpLeg  -0.348141 3.14457 4.38557
LeftLeg  10.5413 19.3714 4.39285
LeftFoot  -5.65033 0.838928 -16.5238
LeftToes  1.24767e-006 1.47042e-008 1.32732e-009
281
root  11.6815 39.5214 6.58496 2.9375 -19.7244 5.9054
RightUpLeg  -10.5402 -24.5733 -4.39218
RightLeg  27.7859 -20.123 -11.325
RightFoot  -14.7551 0.0760873 5.78539
RightToes  -2.08645e-008 3.77894e-005 6.81332e-007
Spine  -2.81798 -0.245048 -5.87791
Spine1  13.2446 -2.59137 8.99263
HEad  -42.2977 19.1933 -12.1088
LeftShoulder1  5.90423 -11.5261 -33.2851
LeftArm  -14.6307 37.2237 -22.5122
LeftForeArm  91.042 -80.3125 -78.9866
LeftHand  -0.658924 -0.537312 13.021
RightShoulder  3.63035 6.18801 31.5679
RightArm  -2.06965 -7.37722 27.2496
RightForeArm  35.3885 66.8948 23.2367
RightHand  -1.14303 5.54848 -12.3957
LeftUpLeg  -2.5568 3.10941 4.65649
LeftLeg  8.05676 12.067 1.95004
LeftFoot  -2.21435 1.42482 -17.4969
LeftToes  1.24767e-006 1.47042e-008 1.32732e-009
